# xmcd
#
# Track frame offsets:
#	150
#	7474
#	14504
#	21925
#
# Disc length: 391 seconds
#
# Revision: 1
# Processed by: cddbd v1.4PL0 Copyright (c) Steve Scherf et al.
# Submitted via: CDmax 2.0
#
DISCID=2e018504
DTITLE=The Thorns - The Thorns (Album snippet sampler)
DYEAR=2003
DGENRE=Americana
TTITLE0=I can't remember
TTITLE1=Sush a shame
TTITLE2=No blue sky
TTITLE3=Runaway feeling
EXTD=
EXTT0=
EXTT1=
EXTT2=
EXTT3=
PLAYORDER=
